<?xml version="1.0" encoding="UTF-8" standalone="no"?>
<svg
   viewBox="0 0 200 200"
   version="1.1"
   id="svg4"
   sodipodi:docname="blob-blue.svg"
   inkscape:version="1.1 (c4e8f9ed74, 2021-05-24)"
   xmlns:inkscape="http://www.inkscape.org/namespaces/inkscape"
   xmlns:sodipodi="http://sodipodi.sourceforge.net/DTD/sodipodi-0.dtd"
   xmlns="http://www.w3.org/2000/svg"
   xmlns:svg="http://www.w3.org/2000/svg">
  <defs
     id="defs8" />
  <sodipodi:namedview
     id="namedview6"
     pagecolor="#ffffff"
     bordercolor="#666666"
     borderopacity="1.0"
     inkscape:pageshadow="2"
     inkscape:pageopacity="0.0"
     inkscape:pagecheckerboard="0"
     showgrid="false"
     inkscape:zoom="3.635"
     inkscape:cx="100"
     inkscape:cy="100.13755"
     inkscape:window-width="1920"
     inkscape:window-height="1015"
     inkscape:window-x="1366"
     inkscape:window-y="0"
     inkscape:window-maximized="1"
     inkscape:current-layer="svg4" />
  <path
     fill="#427861"
     d="m 151.69558,36.237718 c 15.11123,11.945951 29.97062,23.891903 39.03736,40.8817 9.06674,16.989798 12.34084,38.757972 5.91857,56.544172 -6.42228,17.7862 -22.54093,31.59041 -39.28922,42.60723 -16.87421,10.88409 -34.25213,19.11352 -51.25227,18.71532 C 88.983953,194.45521 72.235666,185.29665 53.976256,174.81076 35.716846,164.32487 15.946312,152.64438 6.6277168,134.45999 -2.6908787,116.14286 -1.431609,91.587293 5.7462281,69.155451 12.798138,46.723609 25.768615,26.415491 43.398391,15.398669 61.028166,4.3818481 83.443166,2.6563218 102.33221,7.700168 c 18.88905,4.911113 34.25213,16.724331 49.36337,28.53755 z"
     id="path2"
     style="stroke-width:1.29285;fill:#427861;fill-opacity:0.36562279" />
</svg>
